<?xml version="1.0" encoding="UTF-8"?>
<!DOCTYPE svg PUBLIC "-//W3C//DTD SVG 1.1//EN" "http://www.w3.org/Graphics/SVG/1.1/DTD/svg11.dtd">
<!-- Creator: CorelDRAW X8 -->
<svg xmlns="http://www.w3.org/2000/svg" xml:space="preserve" width="210mm" height="297mm" version="1.1" style="shape-rendering:geometricPrecision; text-rendering:geometricPrecision; image-rendering:optimizeQuality; fill-rule:evenodd; clip-rule:evenodd"
viewBox="0 0 21000 29700"
 xmlns:xlink="http://www.w3.org/1999/xlink">
 <defs>
  <style type="text/css">
   <![CDATA[
    .fil0 {fill:#574333}
    .fil1 {fill:#FFFFF2}
   ]]>
  </style>
 </defs>
 <g id="Capa_x0020_1">
  <metadata id="CorelCorpID_0Corel-Layer"/>
  <g id="_2707793394784">
   <path class="fil0" d="M8280 6716c-481,148 -776,390 -934,826 -414,1149 563,2271 2136,1994 169,-29 629,-170 750,-168 129,2 538,132 719,164 2174,383 2800,-1670 1832,-2500 -251,-216 -273,-175 -589,-326 -377,-2043 -3724,-1818 -3914,10zm1718 -813c-556,75 -1051,416 -1114,928 -72,593 24,379 -506,509 -240,59 -426,295 -481,544 -101,464 248,999 890,1063 321,32 635,-11 919,-102 286,-93 463,-268 730,-139 493,237 1095,371 1651,120 454,-206 718,-934 301,-1328 -269,-253 -583,-116 -728,-260 -146,-146 -31,-486 -236,-787 -250,-366 -790,-634 -1426,-548z"/>
   <path class="fil0" d="M2356 15685c39,565 -151,998 221,1035 552,56 295,-490 367,-986 810,-71 1498,-481 1599,-1360 223,-1927 -2650,-2310 -3183,-575 -129,422 -18,893 167,1208 106,179 215,278 347,394 170,149 335,172 482,284z"/>
   <path class="fil0" d="M5112 14345c75,160 243,343 358,415 150,-94 333,-276 600,-274 335,1 327,253 320,565 -709,5 -1744,75 -1520,952 76,294 361,546 674,600 498,86 693,-167 992,-299 93,242 384,432 721,286 398,-171 221,-372 49,-622 -188,31 -89,121 -301,52 -206,-574 231,-1384 -310,-1878 -431,-393 -1318,-205 -1583,203z"/>
   <path class="fil0" d="M14033 14345c68,134 263,346 363,408 120,-89 365,-289 598,-273 274,19 361,261 310,559 -704,28 -1617,97 -1473,961 118,705 1159,777 1577,321 148,109 294,434 722,287 329,-113 332,-408 78,-619 -128,7 -281,185 -330,-57 -66,-332 125,-1300 -159,-1675 -156,-207 -460,-371 -864,-334 -296,27 -719,210 -822,422z"/>
   <path class="fil0" d="M8761 11070c275,-569 -538,-326 -1872,-1390 -620,-495 -1132,-1201 -1482,-1974 -276,-609 -308,-1177 -371,-1323 -147,-335 -928,-271 -41,1630 497,1067 1154,1812 2124,2461 297,199 1213,731 1642,596z"/>
   <path class="fil0" d="M15504 6265c-217,120 -179,410 -294,850 -345,1322 -1384,2561 -2585,3166 -268,135 -528,233 -825,339 -451,161 -301,577 97,486 985,-223 2136,-1087 2746,-1842 337,-417 624,-863 853,-1439 100,-252 395,-1083 333,-1369 -33,-150 -167,-278 -325,-191z"/>
   <path class="fil0" d="M17218 15793c-139,65 -226,156 -291,316 88,254 487,534 859,557 1024,61 1352,-1104 581,-1496 -355,-181 -897,-153 -866,-590 399,-264 620,47 881,144 91,-67 281,-234 323,-379 -177,-311 -815,-528 -1268,-380 -424,139 -723,577 -432,1087 304,534 845,372 1100,629 212,214 5,479 -314,421 -245,-46 -346,-250 -573,-309z"/>
   <path class="fil0" d="M8156 13791c-183,60 -230,23 -386,131 -74,434 179,213 326,423 2,671 -119,1632 236,2077 449,565 1642,52 913,-464 -134,72 -269,204 -443,66 -250,-197 -160,-1434 -141,-1733 254,-26 540,15 767,-46 219,-534 -313,-422 -706,-464l30 -881c-179,-17 -383,-35 -548,16 -21,322 17,556 -48,875z"/>
   <path class="fil0" d="M12065 14309c85,620 -149,1664 213,2083 598,693 1593,-45 918,-433 -140,75 -217,170 -393,89 -200,-93 -172,-409 -172,-645l7 -1121c192,-14 697,60 782,-105 209,-404 -437,-374 -693,-380l-5 -909 -541 4c0,269 101,851 -175,930 -146,41 -330,38 -290,269 32,184 209,137 349,218z"/>
   <path class="fil0" d="M8168 1394c-408,122 -687,354 -829,743 -465,1280 695,2919 1801,2615 1759,-485 804,-3888 -972,-3358zm122 591c-615,212 -630,1247 39,1917 722,723 1423,-160 1064,-1136 -136,-372 -576,-962 -1103,-781z"/>
   <path class="fil0" d="M11709 1383c-1189,266 -1717,2059 -946,3013 716,886 2258,211 2447,-1473 104,-929 -534,-1756 -1501,-1540zm48 609c-388,148 -720,619 -770,1144 -88,909 682,1506 1356,513 134,-197 230,-411 268,-688 77,-571 -252,-1199 -854,-969z"/>
   <path class="fil1" d="M2362 15020c4,-279 -67,-807 92,-976 110,-40 299,-52 406,15 140,165 72,844 72,1099 1197,30 1436,-1616 288,-1876 -1412,-320 -1693,1471 -858,1738z"/>
   <path class="fil0" d="M6242 3854c-740,184 -975,1050 -646,1830 785,1861 3243,939 2410,-860 -229,-494 -950,-1173 -1764,-970zm198 578c-254,79 -323,135 -383,408 -52,238 10,472 110,658 603,1132 1813,478 1256,-514 -136,-242 -554,-685 -983,-552z"/>
   <path class="fil0" d="M13674 3845c-1857,398 -1782,3111 -21,2844 412,-62 665,-309 868,-510 791,-779 547,-2632 -847,-2334zm68 583c-391,82 -707,408 -815,796 -131,471 147,969 652,865 329,-68 686,-488 780,-812 143,-494 -127,-952 -617,-849z"/>
   <path class="fil0" d="M10827 13925l-543 -4c-41,524 -6,1169 -6,1694 -1,330 -17,1096 625,1064 293,-14 372,-260 196,-484 -200,-255 -272,-97 -270,-580 2,-562 4,-1128 -2,-1690z"/>
   <path class="fil0" d="M13121 19111c149,29 701,47 852,-4 29,-139 38,-201 -17,-337 -186,-13 -392,0 -474,-51 40,-115 -62,-71 397,-87l12 -323c-358,-56 -347,75 -413,-84 46,-104 23,-70 208,-69 114,0 202,6 318,-3 20,-400 66,-365 -706,-351 -133,2 -172,-12 -196,109 -26,131 -5,1091 19,1200z"/>
   <path class="fil0" d="M6428 17978l3 882c-1,343 58,272 627,271 203,0 265,28 259,-201 -10,-348 -330,-74 -532,-211 33,-97 -57,-58 130,-76 262,-25 309,102 271,-335 -335,-46 -349,38 -407,-83 74,-123 182,-25 526,-69 6,-159 24,-220 -25,-334 -136,-34 -343,-16 -505,-18 -255,-3 -347,-66 -347,174z"/>
   <path class="fil0" d="M12319 18975c-32,-138 -90,-198 -143,-296 -171,15 -247,108 -440,54 -127,-35 -234,-144 -227,-293 6,-148 118,-257 249,-280 199,-34 251,75 418,99 59,-117 207,-231 73,-352 -74,-67 -299,-126 -430,-127 -333,-1 -589,214 -675,474 -113,346 88,654 292,780 358,222 607,84 883,-59z"/>
   <path class="fil0" d="M15459 18754c-140,64 -280,-61 -428,-97l-186 269c232,250 754,306 938,-19 289,-508 -402,-554 -532,-717 132,-113 183,-17 344,38 91,-70 161,-143 184,-285 -629,-557 -1394,399 -531,665 157,48 168,10 211,146z"/>
   <path class="fil0" d="M4702 19099l336 14 28 -449 424 -24 18 -301c-410,-73 -391,88 -441,-114 75,-106 172,-58 544,-63 11,-257 69,-352 -171,-359 -168,-5 -362,5 -534,6 -270,1 -224,-37 -223,522 0,227 -24,555 19,768z"/>
   <path class="fil0" d="M8158 18296c2,898 -172,877 770,841l189 -15c100,-554 -135,-353 -568,-407 1,-265 43,-675 -31,-890 -444,-84 -362,76 -360,471z"/>
   <path class="fil0" d="M9703 10878c-268,153 -153,417 140,441 1438,119 965,-450 710,-478 -175,-20 -730,-31 -850,37z"/>
   <path class="fil0" d="M9947 18049c0,183 -53,981 52,1052 88,59 306,49 342,-100 26,-115 6,-752 6,-917 0,-186 2,-268 -187,-279 -210,-13 -213,53 -213,244z"/>
   <path class="fil1" d="M6363 15529c-560,-152 -1201,129 -847,463 192,181 601,68 804,-163 84,-96 96,-180 43,-300z"/>
   <path class="fil0" d="M10417 12753c-501,218 -126,857 293,661 429,-201 177,-865 -293,-661z"/>
   <path class="fil1" d="M15292 15530c-177,-32 -513,-30 -673,25 -191,66 -292,242 -136,429 221,264 973,-23 809,-454z"/>
  </g>
 </g>
</svg>
